<svg height="512pt" viewBox="-1 0 511 512" width="512pt" xmlns="http://www.w3.org/2000/svg"><g fill="#eabe32"><path d="m14.542969 405.550781c-1.855469 9.972657-4.503907 24.398438-6.210938 33.710938-1.113281 6.078125 1.851563 12.164062 7.320313 15.035156 7.53125 3.953125 19.605468 8.425781 35.496094 8.285156 6.824218-.058593 12.613281-5.039062 13.746093-11.765625l5.265625-31.175781"/><path d="m495.023438 405.550781c1.855468 9.972657 4.503906 24.398438 6.207031 33.710938 1.113281 6.078125-1.847657 12.164062-7.316407 15.035156-7.535156 3.953125-19.605468 8.425781-35.5 8.285156-6.820312-.058593-12.609374-5.039062-13.746093-11.765625l-5.261719-31.175781"/><path d="m367.523438 454.007812v5.734376c0 24.671874-50.476563 44.664062-112.742188 44.664062-62.273438 0-112.75-19.992188-112.75-44.664062v-5.734376"/></g><path d="m366.640625 100.960938c19.0625 8.8125 48.046875 24.429687 69.527344 45.910156 0 0 46.585937 107.9375 62.335937 243.386718 1.265625 10.957032-5.226562 21.316407-15.617187 25.003907-10.179688 3.605469-21.085938 5.46875-31.375 6.441406-11.394531 1.074219-21.925781-6.167969-24.976563-17.199219l-47.195312-170.578125v194.5c0 12.691407-7.128906 24.347657-18.5 29.988281-18.191406 9.023438-51.339844 19.761719-106.058594 19.761719s-87.867188-10.738281-106.054688-19.761719c-11.375-5.640624-18.503906-17.296874-18.503906-29.988281v-194.5l-47.195312 170.578125c-3.046875 11.03125-13.578125 18.273438-24.972656 17.199219-10.289063-.972656-21.199219-2.835937-31.375-6.441406-10.390626-3.6875-16.882813-14.046875-15.617188-25.003907 15.75-135.449218 62.335938-243.386718 62.335938-243.386718 21.480468-21.480469 50.453124-37.097656 69.515624-45.898438" fill="#fee372"/><path d="m200.730469 92.636719-9.730469 19.40625c-47.09375 14.371093-115.730469 43.070312-150.042969 242.027343-5.933593 27.71875-13.589843 52.078126-.6875 64.980469-4.585937-.984375-9.15625-2.21875-13.589843-3.789062-10.390626-3.6875-16.882813-14.046875-15.617188-25.003907 15.75-135.449218 62.335938-243.386718 62.335938-243.386718 34.828124-34.828125 89.375-54.234375 89.375-54.234375zm0 0" fill="#eabe32"/><path d="m375.398438 69.46875c0 40.785156-54.003907 100.179688-120.621094 100.179688-66.617188 0-120.621094-59.394532-120.621094-100.179688 0-40.789062 54.003906-61.871094 120.621094-61.871094 66.617187 0 120.621094 21.082032 120.621094 61.871094zm0 0" fill="#fee372"/><path d="m482.886719 415.261719c-10.179688 3.605469-21.085938 5.46875-31.375 6.441406-11.394531 1.074219-21.925781-6.167969-24.976563-17.199219l-47.195312-170.578125c0-19 4.003906-35.972656 13.105468-50.597656l54.355469 208.355469s8.8125 23.578125 36.085938 23.578125zm0 0" fill="#eabe32"/><path d="m162.710938 227.375v237.015625c-5.40625-1.984375-10.042969-4.019531-13.984376-5.976563-11.375-5.640624-18.503906-17.296874-18.503906-29.988281v-194.5c0-16.203125-2.914062-30.9375-9.417968-44.003906 0 0 41.90625 1.8125 41.90625 37.453125zm0 0" fill="#eabe32"/><path d="m452.949219 191.695312c-4.375-1.125-8.863281-1.003906-13.074219.585938-13.460938 5.09375-19.050781 23.316406-12.46875 40.703125 6.574219 17.390625 22.820312 27.34375 36.289062 22.25 2.773438-1.050781 5.214844-2.664063 7.289063-4.707031" fill="#4695bc"/><path d="m254.765625 40.207031c-32.746094 0-61.386719 13.355469-77.039063 33.328125 15.675782 19.972656 44.316407 33.328125 77.0625 33.328125 32.746094 0 61.386719-13.355469 77.039063-33.328125-15.675781-19.972656-44.3125-33.328125-77.0625-33.328125zm0 0" fill="#eabe32"/><path d="m254.78125 338.796875c19.757812 0 55.390625-2.855469 55.390625-2.855469s4.949219 48.503906 43.554687 58.402344v29.695312s-41.574218 21.777344-98.945312 21.777344c-57.367188 0-98.941406-21.777344-98.941406-21.777344v-29.695312c38.605468-9.898438 43.550781-58.402344 43.550781-58.402344s35.636719 2.855469 55.390625 2.855469zm0 0" fill="#eabe32"/><path d="m508.703125 437.894531c-1.554687-8.496093-3.894531-21.238281-5.699219-30.984375 2.617188-5.265625 3.761719-11.308594 3.042969-17.53125-15.695313-134.992187-62.433594-244.429687-62.90625-245.519531-.378906-.878906-.921875-1.679687-1.601563-2.359375-19.617187-19.617188-44.96875-34.429688-64.84375-44.160156 4.082032-9.589844 6.300782-19.09375 6.300782-27.875 0-13.574219-5.035156-25.679688-14.96875-35.980469-2.910156-3.019531-7.71875-3.105469-10.738282-.191406-3.019531 2.910156-3.105468 7.71875-.195312 10.738281 7.109375 7.371094 10.714844 15.929688 10.714844 25.433594 0 29.660156-33.320313 72.121094-79.203125 87.101562v-9.679687c0-4.195313-3.398438-7.597657-7.59375-7.597657-4.199219 0-7.597657 3.402344-7.597657 7.597657v13.496093c-6.0625 1.082032-12.285156 1.667969-18.628906 1.667969-6.351562 0-12.574218-.585937-18.640625-1.667969v-13.5c0-4.191406-3.398437-7.59375-7.59375-7.59375-4.199219 0-7.597656 3.402344-7.597656 7.59375v9.679688c-45.882813-14.980469-79.203125-57.441406-79.203125-87.097656 0-16.351563 10.429688-29.597656 30.996094-39.367188 20.234375-9.613281 49.371094-14.90625 82.035156-14.90625 31.695312 0 59.199219 4.761719 79.535156 13.769532 3.835938 1.703124 8.320313-.03125 10.019532-3.867188 1.703124-3.835938-.03125-8.324219-3.867188-10.019531-22.257812-9.863281-51.886719-15.074219-85.6875-15.074219-35.378906 0-66.003906 5.664062-88.554688 16.375-25.953124 12.328125-39.667968 30.6875-39.667968 53.089844 0 8.785156 2.21875 18.289062 6.304687 27.882812-19.859375 9.710938-45.195312 24.511719-64.835937 44.152344-.679688.675781-1.222656 1.476562-1.605469 2.359375-.46875 1.089844-47.207031 110.527344-62.90625 245.523437-.714844 6.21875.425781 12.261719 3.046875 17.523438-1.808594 9.75-4.144531 22.488281-5.699219 30.984375-1.722656 9.398437 2.804688 18.691406 11.257813 23.128906 8.003906 4.199219 21.097656 9.160157 38.296875 9.160157.265625 0 .53125 0 .800781-.003907 10.511719-.09375 19.410156-7.703125 21.167969-18.09375l4.652343-27.554687c6.324219-4.023438 11.183594-10.3125 13.3125-17.996094l32.277344-116.667969v138.5625c0 11.101563 4.34375 21.371094 11.808594 28.90625v2.410157c0 29.792968 51.738281 52.257812 120.34375 52.257812s120.335938-22.464844 120.335938-52.257812v-2.398438c7.472656-7.539062 11.820312-17.8125 11.820312-28.914062v-138.5625l32.277344 116.664062c2.125 7.6875 6.984375 13.972656 13.3125 18l4.652344 27.550781c1.753906 10.390625 10.65625 18 21.164062 18.09375.269531.003907.535156.003907.800781.003907 17.199219 0 30.296875-4.960938 38.296875-9.160157 8.457032-4.4375 12.984375-13.730469 11.261719-23.125zm-61.507813-239.335937c4.667969 13.933594 9.847657 30.457031 15.039063 49.03125-.402344.199218-.808594.382812-1.226563.542968-4.269531 1.613282-9.265624.878907-14.074218-2.066406-5.421875-3.328125-9.835938-8.925781-12.421875-15.769531-2.589844-6.84375-2.988281-13.960937-1.125-20.046875 1.652343-5.390625 4.910156-9.25 9.167969-10.859375 1.480468-.5625 3.035156-.832031 4.640624-.832031zm-389.789062 250.992187c-.527344 3.121094-3.1875 5.40625-6.324219 5.4375-14.402343.132813-25.316406-3.964843-31.902343-7.417969-2.535157-1.332031-3.890626-4.121093-3.375-6.9375 1.023437-5.605468 2.394531-13.058593 3.722656-20.277343 1.460937.796875 3 1.492187 4.617187 2.066406 9.597657 3.402344 20.460938 5.640625 33.199219 6.84375 1.164062.109375 2.320312.144531 3.464844.125zm274.296875 34.710938c-20.421875 8.089843-47.742187 12.546875-76.921875 12.546875-29.183594 0-56.503906-4.457032-76.929688-12.546875-11.289062-4.46875-19.664062-9.828125-24.25-15.289063 20.03125 8.359375 52.34375 16.796875 101.179688 16.796875 48.828125 0 81.132812-8.433593 101.164062-16.792969-4.582031 5.460938-12.957031 10.816407-24.242187 15.285157zm54.960937-252.359375c-1.015624-3.660156-4.578124-6.015625-8.34375-5.503906-3.765624.511718-6.574218 3.730468-6.574218 7.527343v194.5c0 9.78125-5.605469 18.882813-14.28125 23.183594-17.445313 8.652344-49.414063 18.96875-102.683594 18.96875-53.265625 0-85.238281-10.316406-102.679688-18.96875-8.675781-4.300781-14.285156-13.402344-14.285156-23.183594v-194.5c0-3.796875-2.804687-7.015625-6.570312-7.527343-3.765625-.511719-7.332032 1.839843-8.34375 5.503906l-47.195313 170.578125c-2.070312 7.488281-9.1875 12.386719-16.941406 11.660156-11.476563-1.085937-21.144531-3.058594-29.546875-6.035156-7.113281-2.523438-11.476562-9.503907-10.613281-16.96875 13.144531-113.054688 48.398437-207.828125 58.824219-234.054688 10.53125 5.511719 30.496093 18.746094 36.316406 42.121094.863281 3.453125 3.957031 5.761719 7.363281 5.761719.609375 0 1.226563-.074219 1.84375-.226563 4.070313-1.015625 6.546875-5.136719 5.535156-9.207031-6.878906-27.617188-28.429687-43.386719-41.707031-50.71875 16.917969-14.671875 36.886719-26.082031 53.042969-33.957031 6.289062 10.390625 14.609375 20.535156 24.539062 29.605469 16.816407 15.367187 36.214844 26.253906 56.589844 32.019531v90.21875c0 4.191406 3.398437 7.59375 7.59375 7.59375s7.597656-3.402344 7.597656-7.59375v-86.898438c6.175781.953125 12.402344 1.445313 18.636719 1.445313s12.457031-.492188 18.632812-1.445313v121.210938c0 4.195312 3.398438 7.59375 7.59375 7.59375 4.195313 0 7.597657-3.398438 7.597657-7.59375v-124.53125c20.371093-5.765625 39.769531-16.652344 56.589843-32.019531 9.929688-9.074219 18.25-19.21875 24.539063-29.613282 16.167969 7.890625 36.144531 19.308594 53.046875 33.964844-13.277344 7.332031-34.824219 23.101562-41.703125 50.71875-1.015625 4.070312 1.464844 8.191406 5.535156 9.207031.613281.152344 1.234375.226563 1.839844.226563 3.40625 0 6.503906-2.308594 7.363281-5.761719 5.824219-23.375 25.785156-36.609375 36.316406-42.121094 2.296876 5.773438 5.796876 14.875 9.996094 26.75-1.683594.304688-3.339844.738281-4.945312 1.347657-8.753906 3.3125-15.261719 10.636718-18.320313 20.617187-2.847656 9.289063-2.335937 19.902344 1.4375 29.875 3.773438 9.976563 10.410157 18.269531 18.691407 23.347656 5.589843 3.421875 11.5 5.164063 17.300781 5.164063 3.386719 0 6.734375-.597656 9.957031-1.796875 9.8125 37.246093 19.199219 81.386719 24.707031 128.742187.863281 7.46875-3.5 14.453125-10.609375 16.972656-8.410156 2.980469-18.078125 4.953126-29.550781 6.039063-7.746094.726563-14.875-4.171875-16.941406-11.660156zm103.71875 215.667968c-6.480468 3.402344-17.125 7.417969-31.234374 7.417969-.222657 0-.445313 0-.664063 0-3.140625-.03125-5.796875-2.316406-6.324219-5.4375l-3.40625-20.160156c1.148438.019531 2.304688-.015625 3.472656-.125 12.734376-1.203125 23.59375-3.441406 33.199219-6.84375 1.613281-.574219 3.152344-1.269531 4.613281-2.066406 1.328126 7.222656 2.695313 14.671875 3.722657 20.277343.515625 2.816407-.839844 5.605469-3.378907 6.9375zm0 0"/><path d="m336.511719 67.554688c-3.304688-2.585938-8.078125-2.007813-10.664063 1.296874-14.703125 18.761719-41.929687 30.414063-71.058594 30.414063-29.121093 0-56.359374-11.65625-71.085937-30.417969-2.589844-3.300781-7.363281-3.878906-10.664063-1.289062-3.300781 2.589844-3.875 7.367187-1.285156 10.667968 17.804688 22.6875 48.847656 36.234376 83.035156 36.234376 34.199219 0 65.234376-13.546876 83.015626-36.238282 2.585937-3.304687 2.007812-8.078125-1.292969-10.667968zm0 0"/><path d="m355.617188 386.988281c-32.917969-8.445312-37.847657-51.398437-37.890626-51.816406-.421874-4.109375-4.035156-7.128906-8.164062-6.800781-.351562.027344-35.554688 2.832031-54.78125 2.832031-19.222656 0-54.425781-2.804687-54.78125-2.832031-4.101562-.328125-7.726562 2.691406-8.160156 6.785156-.046875.433594-4.976563 43.390625-37.890625 51.835938-3.359375.859374-5.710938 3.886718-5.710938 7.355468v29.695313c0 2.828125 1.570313 5.417969 4.074219 6.730469.347656.183593 8.714844 4.53125 22.992188 9.382812 3.976562 1.351562 8.289062-.773438 9.636718-4.746094 1.351563-3.972656-.773437-8.289062-4.746094-9.636718-7.496093-2.546876-13.226562-4.945313-16.765624-6.535157v-19.316406c15.394531-5.703125 27.621093-17.816406 35.578124-35.351563 3.566407-7.859374 5.589844-15.3125 6.703126-20.53125 11.429687.832032 34.34375 2.355469 49.070312 2.355469 14.722656 0 37.636719-1.523437 49.066406-2.355469 1.113282 5.21875 3.140625 12.671876 6.707032 20.53125 7.957031 17.535157 20.183593 29.648438 35.578124 35.351563v19.316406c-11.542968 5.175781-46.539062 18.980469-91.351562 18.980469-15.253906 0-30.800781-1.601562-46.214844-4.765625-4.109375-.84375-8.125 1.804687-8.96875 5.914063-.84375 4.109374 1.804688 8.125 5.914063 8.964843 16.414062 3.371094 32.992187 5.078125 49.269531 5.078125 58.566406 0 100.703125-21.714844 102.46875-22.640625 2.503906-1.308593 4.074219-3.902343 4.074219-6.730469v-29.691406c0-3.46875-2.347657-6.496094-5.707031-7.359375zm0 0"/></svg>