<?xml version="1.0" encoding="utf-8"?>
<!-- Generator: Adobe Illustrator 25.0.0, SVG Export Plug-In . SVG Version: 6.00 Build 0)  -->
<svg version="1.1" id="Layer_1" xmlns="http://www.w3.org/2000/svg" xmlns:xlink="http://www.w3.org/1999/xlink" x="0px" y="0px"
	 width="100%" height="100%" viewBox="0 0 133 54" style="enable-background:new 0 0 133 54;" xml:space="preserve">
<style type="text/css">
	.st0{fill:#FF3029;}
	.st1{fill:#FFFFFF;}
</style>
<path id="Rectangle_24" class="st0" d="M27,0h79c14.9,0,27,12.1,27,27l0,0c0,14.9-12.1,27-27,27H27C12.1,54,0,41.9,0,27l0,0
	C0,12.1,12.1,0,27,0z"/>
<path id="Path_11_1_" class="st1" d="M84.5,36.1c0.1,0.5-0.1,1.1-0.5,1.4l-4.7,4.7c-0.2,0.3-0.5,0.5-0.8,0.6c-0.3,0.2-0.7,0.3-1,0.3
	c0,0-0.1,0-0.2,0c-0.1,0-0.3,0-0.5,0c-0.7,0-1.5-0.1-2.2-0.2c-1.3-0.2-2.5-0.6-3.7-1.1c-1.7-0.8-3.4-1.7-5-2.7
	c-2.1-1.4-4.1-3.1-5.9-5c-1.5-1.5-2.9-3-4.1-4.7c-1-1.3-1.9-2.7-2.6-4.1c-0.6-1.1-1.1-2.3-1.5-3.4c-0.3-0.9-0.5-1.8-0.7-2.7
	C51,18.6,50.9,18,51,17.4c0-0.4,0-0.7,0-0.7c0.1-0.4,0.2-0.7,0.3-1c0.1-0.3,0.3-0.6,0.6-0.8l4.7-4.7c0.3-0.3,0.7-0.5,1.1-0.5
	c0.3,0,0.6,0.1,0.8,0.3c0.2,0.2,0.4,0.4,0.6,0.7l3.8,7.2c0.2,0.4,0.3,0.8,0.2,1.2c-0.1,0.4-0.3,0.8-0.6,1.1l-1.7,1.7
	c-0.1,0.1-0.1,0.1-0.1,0.2c0,0.1,0,0.2-0.1,0.3c0.1,0.6,0.3,1.2,0.6,1.7c0.4,0.7,0.8,1.4,1.3,2.1c0.8,1,1.6,2,2.5,2.8
	c0.9,0.9,1.8,1.8,2.8,2.5c0.7,0.5,1.4,0.9,2.1,1.3c0.4,0.2,0.8,0.4,1.3,0.5l0.4,0.1c0.1,0,0.2,0,0.2-0.1c0.1,0,0.2-0.1,0.2-0.1
	l2-2.1c0.4-0.4,0.9-0.6,1.5-0.6c0.3,0,0.7,0.1,1,0.2h0l6.9,4C84.1,35.2,84.4,35.6,84.5,36.1z"/>
</svg>
