<svg width="20" height="20" viewBox="0 0 20 20" fill="none" xmlns="http://www.w3.org/2000/svg">
    <path d="M9.0625 2.8125H3.125C2.95312 2.8125 2.8125 2.95312 2.8125 3.125V9.0625C2.8125 9.23438 2.95312 9.375 3.125 9.375H9.0625C9.23438 9.375 9.375 9.23438 9.375 9.0625V3.125C9.375 2.95312 9.23438 2.8125 9.0625 2.8125ZM8.04688 8.04688H4.14062V4.14062H8.04688V8.04688ZM16.875 2.8125H10.9375C10.7656 2.8125 10.625 2.95312 10.625 3.125V9.0625C10.625 9.23438 10.7656 9.375 10.9375 9.375H16.875C17.0469 9.375 17.1875 9.23438 17.1875 9.0625V3.125C17.1875 2.95312 17.0469 2.8125 16.875 2.8125ZM15.8594 8.04688H11.9531V4.14062H15.8594V8.04688ZM16.875 10.625H10.9375C10.7656 10.625 10.625 10.7656 10.625 10.9375V16.875C10.625 17.0469 10.7656 17.1875 10.9375 17.1875H16.875C17.0469 17.1875 17.1875 17.0469 17.1875 16.875V10.9375C17.1875 10.7656 17.0469 10.625 16.875 10.625ZM15.8594 15.8594H11.9531V11.9531H15.8594V15.8594ZM8.28125 13.9062H5.78125V11.4062C5.78125 11.3203 5.71094 11.25 5.625 11.25H4.6875C4.60156 11.25 4.53125 11.3203 4.53125 11.4062V13.9062H2.03125C1.94531 13.9062 1.875 13.9766 1.875 14.0625V15C1.875 15.0859 1.94531 15.1562 2.03125 15.1562H4.53125V17.6562C4.53125 17.7422 4.60156 17.8125 4.6875 17.8125H5.625C5.71094 17.8125 5.78125 17.7422 5.78125 17.6562V15.1562H8.28125C8.36719 15.1562 8.4375 15.0859 8.4375 15V14.0625C8.4375 13.9766 8.36719 13.9062 8.28125 13.9062Z" fill="#2DD752"/>
</svg>
