<svg height="512" viewBox="0 0 61 45" width="512" xmlns="http://www.w3.org/2000/svg"><g id="008---Cap" fill="none"><g id="Layer_4" transform="translate(1)"><path id="Shape" d="m46.99 33.9c-.34.49-6.3 9.01-16.99 9.98-10.467.936-8.7-3.888-17.91-5.73-3.007-.6-8.275-1.042-10.72.54-.27435397.1733564-.62116107.184223-.90582979.0283824-.28466873-.1558405-.4623815-.453853-.46417021-.7783824 0-.509.331-.7.75-1.08 2.167-1.949 6.75-4.76 11.25-7.98.124 0 5.146-.95 13 1 9.106 2.277 14.36 3.629 21.99 4.02z" fill="#a4c2f7"/><path id="Shape" d="m46.99 33.9c-.34.49-6.3 9.01-16.99 9.98-1.3060288.1296614-2.6206217.1497315-3.93.06 7.055-.235 13.909-4.666 18.01-10.21 1.172.123 1.98.122 2.91.17z" fill="#7facfa"/><path id="Shape" d="m41.09 3.56c0 .208-.045.566-.09 1-.9772698-.3173185-1.9814214-.5449262-3-.68-1.093 0-3.081.21-2.98.21l.09-.84c.338-3.281 5.98-2.89 5.98.31z" fill="#7facfa"/><path id="Shape" d="m58.16 26.11c.0570522 1.8998762-.0870836 3.8004565-.43 5.67-.1225542.9319347-.6350908 1.7679873-1.41 2.3-1.1365697.4760392-2.3984198.5639117-3.59.25-2.45-.292-5.03-.4-6.92-.48-8.513-.335-19.579-3.991-24.75-4.76-2.9916035-.5317775-6.0469706-.6025973-9.06-.21.7-5.607 2.2-11.506 5.38-16.06 4.76-6.82 14.27-8.44 18.5-8.82 1.0926984-.20880768 2.217139-.18495591 3.3.07 11.714 2.794 18.98 10.23 18.98 22.04z" fill="#e8edfc"/><path id="Shape" d="m58.16 26.11c.0570522 1.8998762-.0870836 3.8004565-.43 5.67-.1225542.9319347-.6350908 1.7679873-1.41 2.3-1.1365697.4760392-2.3984198.5639117-3.59.25 1.1079192-.3858227 1.8892812-1.3820593 2-2.55.662504-3.8166785.5775994-7.7256869-.25-11.51-1.79-7.591-7.2-12.411-14.53-15.08-.5958422-.51233064-1.2504272-.95207746-1.95-1.31 3.8739946.66507491 7.5722703 2.11104286 10.87 4.25 6.309 4.115 9.29 10.434 9.29 17.98z" fill="#cad9fc"/></g><path id="Shape" d="m35.52.087c-6.048.688-12.61 2.849-16.6 7.413-3.72 4.262-5.982 12.088-6.42 17.38-4.98 3.564-9.388 6.278-11.587 8.289-.47.236-.93.545-.412.776.00251254.3238808.18058435.6208889.46507716.7757079.28449281.1548189.63059276.1430613.90392284-.0307079.3379641-.2086706.69949049-.3765102 1.077-.5.186 0 .387-.005.589-.009-.02301127-.0772463-.03479849-.1573994-.035-.238-.518-.231-.058-.54.412-.776 2.162-1.977 6.823-4.88 11.587-8.289.423-5.11 2.605-12.851 6.236-17.163 3.989-4.729 10.662-6.934 16.784-7.63z" fill="#fff" transform="translate(1 4)"/><g id="Layer_2" transform="translate(0 -1)"><path id="Shape" d="m13.62 21.759 1.915.577c-.7456391 2.4882294-1.2594952 5.0401024-1.535 7.623l-2-.159c.288325-2.7249475.8306833-5.4169861 1.62-8.041z" fill="#fff"/><g fill="#428dff"><path id="Shape" d="m13.625 26.924c-.5522847.0027614-1.0022386-.4427153-1.005-.995s.4427153-1.0022386.995-1.005h.01c.5522847 0 1 .4477153 1 1s-.4477153 1-1 1z"/><path id="Shape" d="m56.555 14.274c-1.6158212-2.3895379-3.704094-4.42267709-6.136-5.974-2.2819393-1.47677017-4.7525125-2.6392346-7.345-3.456.007-.094.016-.188.016-.281 0-1.917-1.4-3.311-3.577-3.553-2.374-.25-4.182 1.047-4.4 3.136l-.003.054c-1.4644454.19965009-2.9171814.47737904-4.352.832-2.7192282.673493-5.3233183 1.74721258-7.727 3.186-2.4467488 1.47788595-4.5178858 3.5024728-6.051 5.915-1.4569442 2.3798058-2.5870815 4.9448138-3.36 7.626-.0790565.2556902-.0515549.5324666.0762719.7676.1278267.2351335.3451546.4087136.6027281.4814.5260453.148087 1.0742826-.1499838 1.236-.672.7210977-2.5085183 1.7762173-4.9086885 3.137-7.136 1.3691158-2.1553268 3.2205029-3.9628941 5.408-5.28 2.2321973-1.33240158 4.6494222-2.32685728 7.173-2.951.209-.049.42-.091.629-.14-7.992 5.771-10.162 17.678-10.704 22.117-2.7748216-.4321091-5.5986007-.4476133-8.378-.046l-.015.007c-.0389183.0133395-.0769886.0290352-.114.047-.0877878.0256177-.1715894.0633116-.249.112h-.007c-1.67 1.193-3.346 2.336-4.9 3.4-2.42112297 1.5483654-4.73748389 3.2547357-6.934 5.108-.37185667.3570416-.58173274.8504852-.581 1.366-.00037977.3702223.10926019.7322082.315 1.04.27144131.4182269.69820418.7111949 1.18603959.8142032.4878354.1030084.99660914.0075825 1.41396041-.2652032.239-.155 2.525-1.5 8.445-.659 3.1738204.3210725 6.2007021 1.4987116 8.757 3.407 2.3942746 1.8910338 5.3889754 2.8575587 8.437 2.723.766 0 1.607-.04 2.537-.124 9.9-.9 15.873-7.944 17.386-9.948 1.018.049 2.085.109 3.143.2.823.068 1.645.152 2.464.258.4869832.0703497.9780101.1090974 1.47.116.7963149.0251391 1.5841565-.1696588 2.277-.563 1.0226075-.6627929 1.7076695-1.7363484 1.878-2.943.357207-1.9409625.5077141-3.9143153.449-5.887.0030016-2.0439714-.2319123-4.0813462-.7-6.071-.5592847-2.408851-1.5422361-4.699131-2.903-6.764zm-17.255-11.28c.611.068 1.589.334 1.756 1.284-.22-.056-.426-.127-.649-.18-.4333165-.10775532-.8748341-.1793347-1.32-.214h-.017c-.022 0-.049 0-.07 0-.609.016-1.21.055-1.808.1.395915-.77083032 1.2619825-1.17756982 2.108-.99zm-.469 2.944c9.28 5.233 4.772 23.018 3.47 27.469-.488-.071-.988-.147-1.517-.236-4.554-.761-9.13-1.908-13.555-3.017l-.987-.246c-1.085-.272-2.113-.486-3.086-.659.607-5.064 3.475-20.856 15.675-23.311zm-7.922 37.946c-5.624.512-7.407-.71-9.661-2.256-2.8099545-2.0842548-6.1282904-3.375256-9.608-3.738-4.941-.7-7.715 0-9.028.554 1.361-1.136 3.553-2.633 6.032-4.326 1.509-1.031 3.129-2.139 4.747-3.291 2.8460392-.3302358 5.7248972-.2467028 8.547.248.01 0 .018.008.029.009h.032c1.162.181 2.414.426 3.759.762l.984.247c4.464 1.118 9.08 2.274 13.712 3.049 1.8355314.3200941 3.6868267.542076 5.546.665-3.8118392 4.5237439-9.2126266 7.4143515-15.091 8.077zm26.845-11.313c-.0632079.6578917-.4063772 1.2567986-.942 1.644-.7830621.3227575-1.6486082.3875596-2.471.185-.85-.11-1.7-.2-2.556-.268-1.708-.142-3.44-.218-4.931-.278-.806-.032-1.651-.1-2.543-.193 1.229371-4.2346434 1.967556-8.5966459 2.2-13 .235-6.034-.91-10.609-3.4-13.684 2.1860331.73878491 4.2727441 1.74402004 6.213 2.993 2.2039057 1.4043465 4.0965298 3.2455794 5.561 5.41 1.2312926 1.8681542 2.1204749 3.9404299 2.626 6.12.4324385 1.8389302.6495635 3.7219101.647 5.611.0563183 1.8291132-.079087 3.6590951-.404 5.46z"/></g></g></g></svg>