<svg width="21" height="21" viewBox="0 0 21 21" fill="none" xmlns="http://www.w3.org/2000/svg">
    <path d="M10.4795 0.0203857C7.13889 0.0203857 4.42107 2.73825 4.42107 6.07885C4.42107 8.14804 5.46406 9.978 7.05169 11.0714C5.56943 11.5829 4.21083 12.4279 3.06945 13.5692C1.09007 15.5487 0 18.1803 0 20.9795H1.63743C1.63743 16.1039 5.60396 12.1373 10.4795 12.1373C13.8202 12.1373 16.538 9.41949 16.538 6.07885C16.538 2.7382 13.8202 0.0203857 10.4795 0.0203857ZM10.4795 10.4999C8.04177 10.4999 6.0585 8.51665 6.0585 6.07889C6.0585 3.64112 8.04177 1.65781 10.4795 1.65781C12.9173 1.65781 14.9006 3.64108 14.9006 6.07889C14.9006 8.51669 12.9173 10.4999 10.4795 10.4999Z" fill="#15F37B"/>
    <path d="M17.5614 15.9035V12.4649H15.924V15.9035H12.4854V17.541H15.924V20.9795H17.5614V17.541H21V15.9035H17.5614Z" fill="#15F37B"/>
</svg>
