<svg width="21" height="21" viewBox="0 0 21 21" fill="none" xmlns="http://www.w3.org/2000/svg">
    <g clip-path="url(#clip0)">
        <path d="M7.19824 5.94727H3.91699C3.57722 5.94727 3.30176 6.22273 3.30176 6.5625C3.30176 6.90227 3.57722 7.17773 3.91699 7.17773H7.19824C7.53802 7.17773 7.81348 6.90227 7.81348 6.5625C7.81348 6.22273 7.53802 5.94727 7.19824 5.94727Z" fill="#35E07A"/>
        <path d="M7.19824 9.22852H3.91699C3.57722 9.22852 3.30176 9.50398 3.30176 9.84375C3.30176 10.1835 3.57722 10.459 3.91699 10.459H7.19824C7.53802 10.459 7.81348 10.1835 7.81348 9.84375C7.81348 9.50398 7.53802 9.22852 7.19824 9.22852Z" fill="#35E07A"/>
        <path d="M7.19824 12.5098H3.91699C3.57722 12.5098 3.30176 12.7852 3.30176 13.125C3.30176 13.4648 3.57722 13.7402 3.91699 13.7402H7.19824C7.53802 13.7402 7.81348 13.4648 7.81348 13.125C7.81348 12.7852 7.53802 12.5098 7.19824 12.5098Z" fill="#35E07A"/>
        <path d="M16.0166 11.2763V5.65934C16.0166 4.84846 15.7039 4.08347 15.1362 3.50491L12.6399 0.923426C12.6387 0.922195 12.6375 0.920924 12.6363 0.919693C12.0615 0.335221 11.2618 0 10.4422 0H2.52246C1.50474 0 0.676758 0.827982 0.676758 1.8457V17.8008C0.676758 18.8185 1.50474 19.6465 2.52246 19.6465H12.0312C12.908 20.4846 14.0956 21 15.4014 21C18.1153 21 20.3232 18.8105 20.3232 16.1191C20.3232 13.6344 18.4412 11.5775 16.0166 11.2763ZM1.90723 17.8008V1.8457C1.90723 1.50646 2.18322 1.23047 2.52246 1.23047H10.4422C10.9333 1.23047 11.4125 1.43108 11.7574 1.78082L14.2532 4.36189C14.2544 4.36312 14.2556 4.36435 14.2567 4.36554C14.5981 4.71282 14.7861 5.17228 14.7861 5.65938V11.277C12.3842 11.5804 10.5205 13.6362 10.5205 16.1192C10.5205 16.9491 10.7289 17.7311 11.0958 18.4161H2.52246C2.18322 18.416 1.90723 18.14 1.90723 17.8008ZM15.4014 19.7695C13.3885 19.7695 11.751 18.132 11.751 16.1191C11.751 14.1063 13.3885 12.4688 15.4014 12.4688C17.4368 12.4688 19.0928 14.1063 19.0928 16.1191C19.0928 18.132 17.4368 19.7695 15.4014 19.7695Z" fill="#35E07A"/>
        <path d="M16.8206 14.6622C16.5596 14.4448 16.1717 14.48 15.9541 14.741L14.9157 15.9871L14.6802 15.516C14.5282 15.2121 14.1586 15.0888 13.8547 15.2409C13.5508 15.3928 13.4276 15.7624 13.5796 16.0663L14.2358 17.3788C14.3287 17.5645 14.509 17.6908 14.7152 17.7148C14.7389 17.7175 14.7626 17.7189 14.7862 17.7189C14.9675 17.7189 15.1411 17.6386 15.2588 17.4975L16.8994 15.5287C17.1169 15.2676 17.0816 14.8797 16.8206 14.6622Z" fill="#35E07A"/>
        <path d="M10.4795 7.17773H11.1357C11.4755 7.17773 11.751 6.90227 11.751 6.5625C11.751 6.22273 11.4755 5.94727 11.1357 5.94727H10.4795C10.1397 5.94727 9.86426 6.22273 9.86426 6.5625C9.86426 6.90227 10.1397 7.17773 10.4795 7.17773Z" fill="#35E07A"/>
        <path d="M11.751 9.84375C11.751 9.50398 11.4755 9.22852 11.1357 9.22852H10.4795C10.1397 9.22852 9.86426 9.50398 9.86426 9.84375C9.86426 10.1835 10.1397 10.459 10.4795 10.459H11.1357C11.4755 10.459 11.751 10.1835 11.751 9.84375Z" fill="#35E07A"/>
    </g>
    <defs>
        <clipPath id="clip0">
            <rect width="21" height="21" fill="white"/>
        </clipPath>
    </defs>
</svg>
