<?xml version="1.0" encoding="utf-8"?>
<!-- Generator: Adobe Illustrator 25.0.0, SVG Export Plug-In . SVG Version: 6.00 Build 0)  -->
<svg version="1.1" id="Layer_1" xmlns="http://www.w3.org/2000/svg" xmlns:xlink="http://www.w3.org/1999/xlink" x="0px" y="0px"
	 width="100%" height="100%" viewBox="0 0 68 68" style="enable-background:new 0 0 68 68;" xml:space="preserve">
<style type="text/css">
	.st0{fill:url(#Ellipse_1_1_);}
	.st1{fill:#FFFFFF;}
</style>
<linearGradient id="Ellipse_1_1_" gradientUnits="userSpaceOnUse" x1="-258.6324" y1="449.1987" x2="-258.6324" y2="448.1987" gradientTransform="matrix(68 0 0 -68 17621 30545.5078)">
	<stop  offset="0" style="stop-color:#3EF35C"/>
	<stop  offset="1" style="stop-color:#808080"/>
</linearGradient>
<circle id="Ellipse_1" class="st0" cx="34" cy="34" r="34"/>
<path id="Path_1" class="st1" d="M52.3,44.7c0.1,0.6-0.1,1.1-0.5,1.5l-5,5c-0.3,0.3-0.6,0.5-0.9,0.6c-0.3,0.2-0.7,0.3-1.1,0.3
	c0,0-0.1,0-0.2,0s-0.3,0-0.5,0c-0.8,0-1.6-0.1-2.3-0.2c-1.4-0.2-2.7-0.7-3.9-1.2C36,50,34.2,49,32.5,47.9c-2.3-1.5-4.4-3.3-6.3-5.3
	c-1.6-1.5-3.1-3.2-4.4-5c-1-1.4-2-2.9-2.8-4.4c-0.6-1.2-1.2-2.4-1.6-3.7c-0.3-0.9-0.6-1.9-0.7-2.8c-0.1-0.6-0.2-1.2-0.2-1.9
	c0-0.5,0-0.7,0-0.8c0.1-0.4,0.2-0.7,0.3-1.1c0.2-0.3,0.4-0.6,0.6-0.9l5-5c0.3-0.3,0.8-0.5,1.2-0.5c0.3,0,0.6,0.1,0.9,0.3
	c0.3,0.2,0.5,0.4,0.6,0.7l4,7.7c0.2,0.4,0.3,0.9,0.2,1.3c-0.1,0.5-0.3,0.9-0.6,1.2l-1.9,1.9c-0.1,0.1-0.1,0.2-0.1,0.2
	c0,0.1-0.1,0.2-0.1,0.3c0.1,0.6,0.4,1.2,0.7,1.8c0.4,0.8,0.9,1.5,1.4,2.2c0.8,1.1,1.7,2.1,2.7,3c0.9,1,1.9,1.9,3,2.7
	c0.7,0.5,1.4,1,2.2,1.4c0.4,0.2,0.9,0.4,1.4,0.5l0.5,0.1c0.1,0,0.2,0,0.2-0.1c0.1,0,0.2-0.1,0.2-0.1l2.2-2.2c0.4-0.4,1-0.6,1.6-0.6
	c0.4,0,0.7,0.1,1,0.2h0l7.3,4.3C51.8,43.7,52.2,44.2,52.3,44.7z"/>
</svg>
