<svg id="Capa_1" enable-background="new 0 0 512 512" height="512" viewBox="0 0 512 512" width="512" xmlns="http://www.w3.org/2000/svg" xmlns:xlink="http://www.w3.org/1999/xlink"><linearGradient id="SVGID_1_" gradientUnits="userSpaceOnUse" x1="74.981" x2="437.02" y1="437.019" y2="74.98"><stop offset="0" stop-color="#0056e0"/><stop offset="1" stop-color="#fc54ff"/></linearGradient><radialGradient id="SVGID_2_" cx="287.437" cy="153.577" gradientUnits="userSpaceOnUse" r="364.341"><stop offset=".0053" stop-color="#8d00db" stop-opacity=".4"/><stop offset="1" stop-color="#fc54ff" stop-opacity="0"/></radialGradient><linearGradient id="SVGID_3_" gradientUnits="userSpaceOnUse" x1="294.56" x2="271.491" y1="125.739" y2="283.173"><stop offset=".0053" stop-color="#8d00db" stop-opacity=".7"/><stop offset=".1299" stop-color="#af1ae6" stop-opacity=".612"/><stop offset=".2615" stop-color="#cb2fef" stop-opacity=".52"/><stop offset=".4037" stop-color="#e13ff6" stop-opacity=".42"/><stop offset=".5597" stop-color="#f04bfb" stop-opacity=".31"/><stop offset=".7398" stop-color="#f952fe" stop-opacity=".183"/><stop offset="1" stop-color="#fc54ff" stop-opacity="0"/></linearGradient><linearGradient id="lg1"><stop offset="0" stop-color="#fc54ff"/><stop offset=".2201" stop-color="#fd75ff"/><stop offset=".7016" stop-color="#fec8ff"/><stop offset="1" stop-color="#fff"/></linearGradient><linearGradient id="SVGID_4_" gradientUnits="userSpaceOnUse" x1="37.492" x2="638.396" xlink:href="#lg1" y1="667.032" y2="66.129"/><linearGradient id="SVGID_5_" gradientUnits="userSpaceOnUse" x1="-59.917" x2="712.724" xlink:href="#lg1" y1="540.707" y2="-231.934"/><linearGradient id="SVGID_6_" gradientUnits="userSpaceOnUse" x1="-168.05" x2="564.115" xlink:href="#lg1" y1="555.464" y2="-176.701"/><linearGradient id="SVGID_7_" gradientUnits="userSpaceOnUse" x1="-262.09" x2="588.13" xlink:href="#lg1" y1="795.36" y2="-54.86"/><g><circle cx="256" cy="256" fill="url(#SVGID_1_)" r="256"/><circle cx="256" cy="256" fill="url(#SVGID_2_)" r="256"/><path d="m366.942 182.49c-51.195-8.689-102.292-17.225-153.227-25.125.021-10.373.045-20.744.073-31.117 50.687 7.857 101.592 16.56 152.649 25.625.2 10.206.369 20.411.505 30.617z" fill="url(#SVGID_3_)"/><path d="m246.451 392.678c6.432 21.59 25.584 37.553 48.407 38.046 8.061.179 15.779-1.505 22.806-4.636 11.521-5.139 23.082-10.315 34.677-15.512 25.998-11.725 43.845-37.45 44.554-65.086.251-10 .463-20 .638-30-50.72 25.576-101.288 51.798-151.082 77.188z" fill="url(#SVGID_4_)"/><path d="m63.513 348.736c7.093 21.269 27.106 37.838 50.205 39.521 8.155.586 15.886-.686 22.854-3.459 11.428-4.553 22.894-9.182 34.394-13.871 25.788-10.53 42.718-36.145 42.698-64.515-.013-10.248-.023-20.495-.03-30.744-50.424 25.134-100.671 49.981-150.121 73.068z" fill="url(#SVGID_5_)"/><path d="m213.715 157.365c.021-10.373.045-20.744.073-31.117 10.137 1.572 20.284 3.177 30.438 4.812 5.81-19.303 11.55-38.586 17.177-57.834-20.078-3.407-40.108-6.639-60.085-9.663-9.079-1.376-17.383 5.951-17.498 15.37-.556 49.532-.866 99.065-.932 148.596-.016 12.417-7.506 23.614-18.991 28.342-23.445 9.658-46.868 19.229-70.226 28.588-20.322 8.182-34.224 27.909-32.761 50.984.287 4.579 1.19 9.033 2.603 13.292 9.315 8.496 21.369 14.125 34.449 15.038 8.192.571 15.961-.706 22.963-3.479 16.522-6.543 33.114-13.234 49.759-20.027 25.95-10.608 42.958-36.225 42.95-64.599-.018-29.062-.008-58.124.03-87.186 10.222 1.588 20.449 3.194 30.679 4.812 5.108-4.779 10.21-9.553 15.304-14.319-5.125-5.601-10.243-11.202-15.352-16.8-10.2-1.624-20.393-3.23-30.58-4.81z" fill="url(#SVGID_6_)"/><path d="m382.427 95.538c-40.515-7.977-80.867-15.497-121.024-22.312-9.125-1.553-17.332 5.623-17.308 15.059.05 14.259.094 28.517.13 42.775 40.617 6.541 81.365 13.561 122.211 20.813.201 10.206.369 20.411.505 30.616-40.956-6.951-81.849-13.804-122.647-20.312.02 10.373.036 20.745.048 31.118 40.921 6.474 81.903 13.16 122.912 19.81.131 18.518.155 37.034.074 55.552-.053 12.227-7.641 23.326-19.15 28.154-23.495 9.837-46.965 19.742-70.367 29.593-20.362 8.57-34.45 29.069-33.585 52.72.168 4.692.944 9.232 2.225 13.552 9.005 8.384 20.774 13.637 33.725 14.009 8.111.237 15.867-1.388 22.915-4.47 16.629-7.273 33.33-14.613 50.085-21.976 26.119-11.547 43.866-37.116 44.357-64.751 1.188-68.19.592-136.381-1.787-204.573-.262-7.381-5.929-13.916-13.319-15.377z" fill="url(#SVGID_7_)"/></g></svg>