<svg width="21" height="21" viewBox="0 0 21 21" fill="none" xmlns="http://www.w3.org/2000/svg">
    <g opacity="0.8">
        <path d="M20.65 20.3H19.25V10.5C19.2494 9.92037 18.7797 9.45061 18.2 9.45V7.35C18.1994 6.77037 17.7297 6.30062 17.15 6.3V4.2C17.1494 3.62037 16.6797 3.15062 16.1 3.15V1.05C16.0994 0.470367 15.6297 0.000615234 15.05 0H5.95001C5.37038 0.000615234 4.90063 0.470367 4.90001 1.05V3.15C4.32038 3.15062 3.85063 3.62037 3.85001 4.2V6.3C3.27038 6.30062 2.80063 6.77037 2.80001 7.35V9.45C2.22038 9.45061 1.75063 9.92037 1.75001 10.5V20.3H0.349986C0.15668 20.3 0 20.4567 0 20.65C0 20.8433 0.15668 21 0.349986 21H20.65C20.8433 21 21 20.8433 21 20.65C21 20.4567 20.8433 20.3 20.65 20.3ZM5.59999 1.05C5.60011 0.856775 5.75675 0.700137 5.94997 0.700014H15.05C15.2433 0.700137 15.3998 0.856775 15.4 1.05V3.15H10.1146C9.9483 2.33522 9.23159 1.75001 8.4 1.75001C7.56841 1.75001 6.8517 2.33522 6.68538 3.15H5.60003V1.05H5.59999ZM9.38552 3.15H7.41452C7.56074 2.73082 7.95609 2.44999 8.40004 2.44999C8.84399 2.44999 9.2393 2.73082 9.38552 3.15ZM4.54999 4.2C4.55011 4.00673 4.70675 3.85014 4.89997 3.85001H16.1C16.2933 3.85014 16.4499 4.00678 16.45 4.2V6.3H9.06462C8.8983 5.48522 8.18159 4.90001 7.35 4.90001C6.51841 4.90001 5.8017 5.48522 5.63538 6.3H4.55003V4.2H4.54999ZM8.33552 6.3H6.36452C6.51074 5.88082 6.90609 5.59999 7.35004 5.59999C7.79399 5.59999 8.1893 5.88082 8.33552 6.3ZM3.49999 7.35C3.50011 7.15673 3.65675 7.00014 3.84997 7.00001H17.15C17.3432 7.00014 17.4998 7.15678 17.5 7.35V9.45H8.01462C7.8483 8.63522 7.13159 8.05001 6.3 8.05001C5.46841 8.05001 4.7517 8.63522 4.58538 9.45H3.49999V7.35ZM7.28552 9.45H5.31452C5.46074 9.03082 5.85609 8.74999 6.30004 8.74999C6.74399 8.74999 7.1393 9.03082 7.28552 9.45ZM18.55 20.3H2.44999V10.5C2.45011 10.3068 2.60675 10.1501 2.79997 10.15H18.2C18.3933 10.1501 18.5498 10.3068 18.55 10.5V20.3H18.55Z" fill="#FFCF23"/>
        <path d="M5.95013 15.7499C7.10993 15.7499 8.05014 14.8097 8.05014 13.6499C8.05014 12.4901 7.10993 11.5499 5.95013 11.5499C4.79033 11.5499 3.85013 12.4901 3.85013 13.6499C3.8514 14.8092 4.79082 15.7487 5.95013 15.7499ZM5.95013 12.2499C6.72332 12.2499 7.35012 12.8767 7.35012 13.6499C7.35012 14.4231 6.72332 15.0499 5.95013 15.0499C5.17695 15.0499 4.55014 14.4231 4.55014 13.6499C4.55088 12.877 5.17723 12.2507 5.95013 12.2499Z" fill="#FFCF23"/>
        <path d="M16.8001 11.5499H9.45008C9.25678 11.5499 9.1001 11.7066 9.1001 11.8999C9.1001 12.0932 9.25678 12.2499 9.45008 12.2499H16.8001C16.9934 12.2499 17.1501 12.0932 17.1501 11.8999C17.1501 11.7066 16.9934 11.5499 16.8001 11.5499Z" fill="#FFCF23"/>
        <path d="M16.8001 13.2999H9.45008C9.25678 13.2999 9.1001 13.4566 9.1001 13.6499C9.1001 13.8432 9.25678 13.9999 9.45008 13.9999H16.8001C16.9934 13.9999 17.1501 13.8432 17.1501 13.6499C17.1501 13.4566 16.9934 13.2999 16.8001 13.2999Z" fill="#FFCF23"/>
        <path d="M16.8001 15.0499H9.45008C9.25678 15.0499 9.1001 15.2066 9.1001 15.3999C9.1001 15.5932 9.25678 15.7499 9.45008 15.7499H16.8001C16.9934 15.7499 17.1501 15.5933 17.1501 15.4C17.1501 15.2066 16.9934 15.0499 16.8001 15.0499Z" fill="#FFCF23"/>
        <path d="M16.8001 16.7999H4.20011C4.00681 16.7999 3.85013 16.9566 3.85013 17.1499C3.85013 17.3432 4.00681 17.4999 4.20011 17.4999H16.8001C16.9934 17.4999 17.1501 17.3432 17.1501 17.1499C17.1501 16.9566 16.9934 16.7999 16.8001 16.7999Z" fill="#FFCF23"/>
        <path d="M16.8001 18.5499H4.20011C4.00681 18.5499 3.85013 18.7066 3.85013 18.8999C3.85013 19.0932 4.00681 19.2499 4.20011 19.2499H16.8001C16.9934 19.2499 17.1501 19.0932 17.1501 18.8999C17.1501 18.7066 16.9934 18.5499 16.8001 18.5499Z" fill="#FFCF23"/>
    </g>
</svg>