<svg xmlns="http://www.w3.org/2000/svg" width="35.181" height="20.132" viewBox="0 0 35.181 20.132">
  <g id="view" transform="translate(0.707 -11.715)">
    <path id="Path_31" data-name="Path 31" d="M33.767,21.84l-4.333,4.333a17.665,17.665,0,0,1-24.983,0L0,21.722l4.333-4.333a17.665,17.665,0,0,1,24.983,0Z" transform="translate(0 0)" fill="#e7eced" stroke="#384a5e" stroke-width="1"/>
    <circle id="Ellipse_5" data-name="Ellipse 5" cx="7.188" cy="7.188" r="7.188" transform="translate(9.679 14.576)" fill="#3083c9"/>
    <path id="Path_32" data-name="Path 32" d="M20.757,24.948a.6.6,0,0,1-.6-.6,4.2,4.2,0,0,1,4.193-4.193.6.6,0,1,1,0,1.2,3,3,0,0,0-3,3A.6.6,0,0,1,20.757,24.948Z" transform="translate(-8.083 -3.184)" fill="#fff"/>
  </g>
</svg>
