<svg xmlns="http://www.w3.org/2000/svg" width="33.767" height="29.788" viewBox="0 0 33.767 29.788">
  <g id="health" transform="translate(0 -30.166)">
    <path id="Path_25" data-name="Path 25" d="M34.366,40.166c4.636,0,7.832,3.892,7.832,8.5,0,6.375-6.935,11.917-16.224,19.967C16.685,60.584,9.75,55.043,9.75,48.668c0-4.61,3.2-8.5,7.832-8.5,5.952,0,8.392,5.469,8.392,5.469S28.414,40.166,34.366,40.166Z" transform="translate(-9.107 -9.34)" fill="#ed5151"/>
    <path id="Path_26" data-name="Path 26" d="M172.413,170.189v3.957H168.06V178.5H164.1v-4.353H159.75v-3.957H164.1v-4.353h3.957v4.353Z" transform="translate(-149.214 -126.722)" fill="#e3f2ff"/>
    <path id="Path_27" data-name="Path 27" d="M415.16,83.155a.66.66,0,1,0-.66-.66A.66.66,0,0,0,415.16,83.155Z" transform="translate(-387.163 -48.262)"/>
    <path id="Path_28" data-name="Path 28" d="M25.276,30.166a9.54,9.54,0,0,0-6.9,2.93,11.693,11.693,0,0,0-1.5,1.861,11.7,11.7,0,0,0-1.5-1.861,9.54,9.54,0,0,0-6.9-2.93c-5,0-8.491,4.185-8.491,9.161,0,6.722,7.123,12.381,16.452,20.466a.659.659,0,0,0,.864,0c9.351-8.1,16.452-13.753,16.452-20.466a9.606,9.606,0,0,0-2.344-6.418A8.119,8.119,0,0,0,25.276,30.166ZM16.884,58.422C8.074,50.8,1.319,45.324,1.319,39.327c0-4.471,3.083-7.842,7.172-7.842a8.137,8.137,0,0,1,5.927,2.506,9.833,9.833,0,0,1,1.863,2.573h0a.659.659,0,0,0,.6.389h0a.66.66,0,0,0,.6-.389,9.834,9.834,0,0,1,1.863-2.573,8.137,8.137,0,0,1,5.927-2.506c4.089,0,7.172,3.371,7.172,7.842C32.448,45.46,25.247,51.185,16.884,58.422Z" transform="translate(0 0)"/>
    <path id="Path_29" data-name="Path 29" d="M409.131,112.18a.659.659,0,0,0-.278.89,6.114,6.114,0,0,1,.675,2.791c0,1.906-.907,3.928-2.854,6.365a.66.66,0,1,0,1.03.823c2.144-2.683,3.143-4.968,3.143-7.189a7.353,7.353,0,0,0-.826-3.4A.66.66,0,0,0,409.131,112.18Z" transform="translate(-379.718 -76.534)"/>
    <path id="Path_30" data-name="Path 30" d="M163.322,160.189h-3.693V156.5a.66.66,0,0,0-.66-.66h-3.957a.659.659,0,0,0-.66.66v3.693h-3.693a.659.659,0,0,0-.66.66v3.957a.66.66,0,0,0,.66.66h3.693v3.693a.659.659,0,0,0,.66.66h3.957a.66.66,0,0,0,.66-.66v-3.693h3.693a.66.66,0,0,0,.66-.66v-3.957A.659.659,0,0,0,163.322,160.189Zm-.66,3.957h-3.693a.66.66,0,0,0-.66.66V168.5h-2.638v-3.693a.66.66,0,0,0-.66-.66h-3.693v-2.638h3.693a.66.66,0,0,0,.66-.66v-3.693h2.638v3.693a.66.66,0,0,0,.66.66h3.693Z" transform="translate(-140.107 -117.382)"/>
  </g>
</svg>
