<svg xmlns="http://www.w3.org/2000/svg" width="100%" height="100%" viewBox="0 0 16.629 20.496">
  <g id="delete" transform="translate(-41.785)">
    <path d="M54.739,1.758H50.882V0H45.643V1.758H41.785V4.534H54.739Zm-7.709-.37h2.463v.37H47.031Z" transform="translate(0)" fill="red"/>
    <path d="M73.52,131.993,73.782,128H62.769l.88,13.417h5.282a5.985,5.985,0,0,1,4.589-9.424Z" transform="translate(-20.013 -122.078)" fill="red"/>
    <path d="M206.955,244.141a4.6,4.6,0,1,0,4.6,4.6A4.605,4.605,0,0,0,206.955,244.141Zm2.507,6.125-.981.981-1.525-1.525-1.525,1.525-.981-.981,1.525-1.525-1.525-1.525.981-.981,1.525,1.525,1.525-1.525.981.981-1.525,1.525Z" transform="translate(-153.141 -232.846)" fill="red"/>
  </g>
</svg>
