<svg xmlns="http://www.w3.org/2000/svg" width="16.794" height="11.92" viewBox="0 0 16.794 11.92">
  <g id="wifi-signal" transform="translate(0 -66.147)">
    <g id="Group_2" data-name="Group 2" transform="translate(0 66.147)">
      <path id="Path_6" data-name="Path 6" d="M16.762,69.629a.183.183,0,0,0-.022-.026,11.8,11.8,0,0,0-16.686,0,.184.184,0,0,0,0,.261l1.22,1.22a.184.184,0,0,0,.26,0,9.694,9.694,0,0,1,13.725,0,.184.184,0,0,0,.26,0l1.22-1.22a.184.184,0,0,0,.022-.234Z" transform="translate(0 -66.147)" fill="#fff"/>
      <path id="Path_7" data-name="Path 7" d="M68.11,153.719a8.515,8.515,0,0,0-6.059,2.514.184.184,0,0,0,0,.261l1.216,1.216a.184.184,0,0,0,.26,0,6.473,6.473,0,0,1,9.165,0,.184.184,0,0,0,.261,0l1.216-1.216a.184.184,0,0,0,0-.261A8.515,8.515,0,0,0,68.11,153.719Z" transform="translate(-59.713 -150.493)" fill="#fff"/>
      <path id="Path_8" data-name="Path 8" d="M127.723,241.292a5.31,5.31,0,0,0-3.779,1.568.184.184,0,0,0,0,.261l1.216,1.216a.184.184,0,0,0,.26,0,3.252,3.252,0,0,1,4.6,0,.184.184,0,0,0,.26,0l1.216-1.216a.184.184,0,0,0,0-.26A5.31,5.31,0,0,0,127.723,241.292Z" transform="translate(-119.326 -234.839)" fill="#fff"/>
      <path id="Path_9" data-name="Path 9" d="M192.043,334.083a1.852,1.852,0,0,0-1.318.546.184.184,0,0,0,0,.26l1.188,1.188a.184.184,0,0,0,.26,0l1.188-1.188a.184.184,0,0,0,0-.26A1.852,1.852,0,0,0,192.043,334.083Z" transform="translate(-183.646 -324.212)" fill="#fff"/>
    </g>
  </g>
</svg>
