<svg xmlns="http://www.w3.org/2000/svg" width="29.5" height="31.727" viewBox="0 0 29.5 31.727">
  <g id="shuffle" transform="translate(-16.55)">
    <g id="Group_4" data-name="Group 4" transform="translate(16.55 0)">
      <path id="Path_42" data-name="Path 42" d="M27.566,327.336a.9.9,0,0,0-1.272.182,7.872,7.872,0,0,1-6.332,3.156h-2.5a.908.908,0,0,0,0,1.817h2.51a9.635,9.635,0,0,0,4.414-1.057,9.74,9.74,0,0,0,3.365-2.826A.912.912,0,0,0,27.566,327.336Z" transform="translate(-16.55 -305.137)" fill="#00aa81"/>
      <path id="Path_43" data-name="Path 43" d="M213.478,9.426a.918.918,0,0,0,1.279-.162A7.87,7.87,0,0,1,221.015,6.2H226.3l-2.82,2.82a.912.912,0,0,0,.639,1.554.887.887,0,0,0,.639-.269l4.374-4.374a.906.906,0,0,0,0-1.285L224.756.268a.909.909,0,0,0-1.285,1.285l2.82,2.82h-5.282a9.68,9.68,0,0,0-7.7,3.775A.924.924,0,0,0,213.478,9.426Z" transform="translate(-199.898 0)" fill="#00aa81"/>
      <path id="Path_44" data-name="Path 44" d="M41.974,82.127a.909.909,0,0,0-1.285,1.285l2.82,2.82H38.226a7.929,7.929,0,0,1-7.92-7.92v-3.5a9.747,9.747,0,0,0-9.737-9.737h-2.51a.908.908,0,0,0,0,1.817h2.51a7.929,7.929,0,0,1,7.92,7.92v3.5a9.747,9.747,0,0,0,9.737,9.737h5.282l-2.82,2.82a.912.912,0,0,0,.639,1.554.886.886,0,0,0,.639-.269l4.374-4.374a.906.906,0,0,0,0-1.285Z" transform="translate(-17.11 -60.696)" fill="#00aa81"/>
    </g>
  </g>
</svg>
