<svg xmlns="http://www.w3.org/2000/svg" width="30.738" height="30.738" viewBox="0 0 30.738 30.738">
  <g id="envelope" transform="translate(-0.5 0)">
    <path id="Path_10" data-name="Path 10" d="M15.859,12.68A2.68,2.68,0,1,1,13.18,10,2.68,2.68,0,0,1,15.859,12.68Zm0,0" transform="translate(-9.4 -9.399)" fill="#fcbd38"/>
    <path id="Path_11" data-name="Path 11" d="M3.78,6.56a3.28,3.28,0,1,1,3.28-3.28A3.284,3.284,0,0,1,3.78,6.56Zm0-5.359A2.079,2.079,0,1,0,5.859,3.281,2.082,2.082,0,0,0,3.78,1.2Zm0,0" transform="translate(0)"/>
    <path id="Path_12" data-name="Path 12" d="M43.362,199.766a.585.585,0,0,1,.584.585v16.976a.584.584,0,0,1-.584.584H19.151a.585.585,0,0,1-.585-.584V200.351a.585.585,0,0,1,.585-.585" transform="translate(-16.982 -187.773)" fill="#ffe787"/>
    <path id="Path_13" data-name="Path 13" d="M45.551,352.883l-9.219,8.952H58.609v-.948l-8.25-8" transform="translate(-33.681 -331.697)" fill="#8de3a8"/>
    <path id="Path_14" data-name="Path 14" d="M383.813,241.266l-3.673,5.947h1.637v9.706h4.073v-9.706h1.637Zm0,0" transform="translate(-356.849 -226.781)" fill="#f2685a"/>
    <path id="Path_15" data-name="Path 15" d="M323.338,457.207a.6.6,0,0,1-.117-.012.589.589,0,0,1-.113-.034.608.608,0,0,1-.1-.055.581.581,0,0,1-.166-.166.552.552,0,0,1-.055-.1.567.567,0,0,1-.034-.112.58.58,0,0,1,0-.234.566.566,0,0,1,.034-.112.55.55,0,0,1,.055-.1.588.588,0,0,1,.074-.091.6.6,0,0,1,.091-.074.621.621,0,0,1,.1-.055.571.571,0,0,1,.113-.034.589.589,0,0,1,.234,0,.55.55,0,0,1,.112.034.589.589,0,0,1,.1.055.582.582,0,0,1,.166.166.593.593,0,0,1,.055.1.55.55,0,0,1,.034.112.575.575,0,0,1,0,.234.546.546,0,0,1-.034.112.6.6,0,0,1-.055.1.566.566,0,0,1-.075.091.557.557,0,0,1-.091.074.577.577,0,0,1-.1.055.566.566,0,0,1-.112.034A.6.6,0,0,1,323.338,457.207Zm0,0" transform="translate(-302.893 -428.63)"/>
    <path id="Path_16" data-name="Path 16" d="M127.509,457.2h-9.761a.6.6,0,0,1,0-1.2h9.761a.6.6,0,0,1,0,1.2Zm0,0" transform="translate(-109.645 -428.624)"/>
    <path id="Path_17" data-name="Path 17" d="M36.332,21.841,47.955,10.477,59.579,21.841" transform="translate(-33.681 -9.848)" fill="#dae9ec"/>
    <path id="Path_18" data-name="Path 18" d="M59.58,199.766,47.956,211.13,36.333,199.766" transform="translate(-33.682 -187.773)" fill="#0082a0"/>
    <path id="Path_19" data-name="Path 19" d="M123.192,116.8a7.255,7.255,0,0,1-.651,3.015l-3.769,3.684a7.3,7.3,0,0,1-5.726,0l-3.769-3.684a7.284,7.284,0,1,1,13.916-3.015Zm0,0" transform="translate(-101.634 -102.945)" fill="#fed271"/>
    <path id="Path_20" data-name="Path 20" d="M155.023,160.711a4.785,4.785,0,1,1,4.785-4.785A4.79,4.79,0,0,1,155.023,160.711Zm0,0" transform="translate(-140.749 -142.067)" fill="#fcbd38"/>
    <path id="Path_21" data-name="Path 21" d="M145.624,151.911a5.385,5.385,0,1,1,5.385-5.385A5.392,5.392,0,0,1,145.624,151.911Zm0-9.57a4.185,4.185,0,1,0,4.185,4.185A4.189,4.189,0,0,0,145.624,142.342Zm0,0" transform="translate(-131.349 -132.667)"/>
    <path id="Path_22" data-name="Path 22" d="M204.67,190.224c-.792-.027-1.44-.436-1.44-.859,0-.224.2-.555.449-.555.277,0,.5.39.991.475v-1.07c-.608-.231-1.321-.515-1.321-1.36a1.35,1.35,0,0,1,1.321-1.34v-.185c0-.092.106-.178.251-.178.125,0,.251.086.251.178v.165c.409.013,1.182.119,1.182.575,0,.178-.119.542-.409.542-.218,0-.343-.212-.773-.244v.964c.6.224,1.3.535,1.3,1.427a1.4,1.4,0,0,1-1.3,1.44v.191c0,.093-.125.178-.251.178-.145,0-.251-.086-.251-.178Zm.066-3.051v-.786c-.3.059-.423.211-.423.37C204.313,186.949,204.485,187.068,204.736,187.173Zm.37,1.222v.885c.224-.053.4-.178.4-.416C205.509,188.646,205.344,188.507,205.106,188.395Zm0,0" transform="translate(-190.56 -174.036)"/>
    <path id="Path_23" data-name="Path 23" d="M38.73,20.564l-3.583-5.8V13.026a1.186,1.186,0,0,0-1.185-1.185l-.243-.006L22.276.648a.6.6,0,0,0-.839,0L9.994,11.835l-.243.006a1.186,1.186,0,0,0-1.185,1.185V30a1.186,1.186,0,0,0,1.185,1.185H36.582a.6.6,0,0,0,.6-.6V21.48h1.036a.6.6,0,0,0,.511-.916Zm-8.367,0a.6.6,0,0,0,.511.916h1.036v6.739l-6.881-6.676,8.7-8.507.215.006v1.721Zm-20.6,9.421V13.042l.215-.006,8.7,8.507L9.989,29.986Zm19.871-16.95h2.376l-2.337,2.285a7.976,7.976,0,0,0-.038-2.285Zm-1.1,1.271a6.625,6.625,0,0,1-.553,2.665l-2.664,2.6-.941.92a6.7,6.7,0,0,1-5.051,0l-.654-.639-2.952-2.886a6.684,6.684,0,1,1,12.814-2.665Zm-14.5,1.014L11.7,13.036h2.375a8,8,0,0,0-.038,2.285Zm7.82,6.871a7.99,7.99,0,0,0,.837-.044l-.837.818-.837-.818A8,8,0,0,0,21.856,22.191Zm0-20.274L32,11.835H29.343a7.885,7.885,0,0,0-14.974,0H11.712ZM19.542,22.383l1.894,1.852a.6.6,0,0,0,.84,0l1.894-1.852,7.739,7.509v.094h-20.2Zm17.04-2.1a.6.6,0,0,0-.6.6v9.106H33.11V21.48h.8a.6.6,0,0,0,0-1.2H31.95l2.6-4.2,2.6,4.2Zm0,0" transform="translate(-7.582 -0.448)"/>
  </g>
</svg>
