<svg xmlns="http://www.w3.org/2000/svg" width="33.885" height="25.119" viewBox="0 0 33.885 25.119">
  <g id="handshake" transform="translate(0 -66.227)">
    <g id="Group_3" data-name="Group 3" transform="translate(8.324 70.901)">
      <path id="Path_34" data-name="Path 34" d="M128.188,333.508a1.406,1.406,0,1,1-1.581-.284A1.408,1.408,0,0,1,128.188,333.508Z" transform="translate(-125.787 -320.109)" fill="#e6e6e6"/>
      <path id="Path_35" data-name="Path 35" d="M159.036,364.353a1.405,1.405,0,1,1-1.58-.284A1.406,1.406,0,0,1,159.036,364.353Z" transform="translate(-154.593 -348.912)" fill="#e6e6e6"/>
      <path id="Path_36" data-name="Path 36" d="M189.092,394.414a1.407,1.407,0,0,1,.289,1.571,1.391,1.391,0,0,1-.289.419,1.407,1.407,0,1,1,0-1.989Z" transform="translate(-182.661 -376.984)" fill="#e6e6e6"/>
      <path id="Path_37" data-name="Path 37" d="M194.2,145.106a7.993,7.993,0,0,1-2.215,4.238l-.8.8-6.153-6.153-.028-.027-.013-.013-.021-.02-.017-.017-.838-.839-2.066,2.066a1.629,1.629,0,1,1-2.3-2.3l3.564-3.565a4.132,4.132,0,0,1,4.625-.841,2.221,2.221,0,0,0,2.494-.442l1.136-1.136,5.195,5.195-.058.058-1.939,1.939A2.014,2.014,0,0,0,194.2,145.106Z" transform="translate(-175.729 -136.852)" fill="#e6e6e6"/>
    </g>
    <path id="Path_38" data-name="Path 38" d="M364.181,83.04,360.9,86.326l-.667-.667-5.195-5.195-.711-.711,3.286-3.285Z" transform="translate(-330.875 -9.565)" fill="#4780d1"/>
    <path id="Path_39" data-name="Path 39" d="M83.8,146.82l.406.406a1.278,1.278,0,0,1-1.808,1.808l-.957-.957a1.278,1.278,0,0,1-1.818,1.8l-1.232-1.232a1.278,1.278,0,0,1-1.685,1.915h0a1.407,1.407,0,0,0-2.278-1.571,1.407,1.407,0,0,0-1.58-2.274l-.062-.062-.045-.045h-.1a1.407,1.407,0,0,0-1.832-1.933l-.623-.623a7.994,7.994,0,0,1-2.205-4.185,2.2,2.2,0,0,0-.61-1.153l-1.336-1.336,6.193-6.193,1.735,1.735a2.235,2.235,0,0,0,2.355.5,3.116,3.116,0,0,1,2.007-.039,4.151,4.151,0,0,0-.754.6L74,137.538a1.629,1.629,0,0,0,2.3,2.3l2.066-2.066.838.839.017.017.021.02.013.013.028.027,6.153,6.153.167.168A1.278,1.278,0,0,1,83.8,146.82Z" transform="translate(-61.655 -60.655)" fill="#f2f2f2"/>
    <path id="Path_40" data-name="Path 40" d="M17.685,77.137,11.493,83.33l-.579.579L7.628,80.622l7.315-7.315,3.286,3.286Z" transform="translate(-7.124 -6.612)" fill="#f73c3c"/>
    <path id="Path_41" data-name="Path 41" d="M33.726,73.165l-6.572-6.572a.541.541,0,0,0-.765,0L23.1,69.88a.541.541,0,0,0,0,.765l.328.328-.753.753a1.692,1.692,0,0,1-1.888.332,4.674,4.674,0,0,0-4.168.155,3.647,3.647,0,0,0-2.118.113,1.685,1.685,0,0,1-1.787-.375L11.363,70.6l.161-.161a.541.541,0,0,0,0-.765L8.239,66.385a.541.541,0,0,0-.765,0L.158,73.7a.541.541,0,0,0,0,.765l3.286,3.286a.541.541,0,0,0,.765,0l.2-.2.954.954a1.655,1.655,0,0,1,.461.869,8.5,8.5,0,0,0,2.354,4.469l.18.18a1.946,1.946,0,0,0,1.413,3.287l.1,0a1.946,1.946,0,0,0,1.944,2.045h.043a1.947,1.947,0,0,0,3.323,1.42c.031-.031.06-.063.089-.1a1.821,1.821,0,0,0,2.3-1.062l.055.055a1.82,1.82,0,0,0,2.993-.654A1.819,1.819,0,0,0,23.5,87.547a1.835,1.835,0,0,0-.051-.43,1.82,1.82,0,0,0,1.118-2.836L25,83.847a8.5,8.5,0,0,0,2.364-4.525,1.462,1.462,0,0,1,.413-.775l1.615-1.615.284.284a.541.541,0,0,0,.765,0l3.286-3.286a.541.541,0,0,0,0-.765Zm-32.42.918,6.55-6.55,2.521,2.521L3.827,76.6Zm7.849,11.9a.865.865,0,1,1,1.224,0A.86.86,0,0,1,9.155,85.979Zm2.654,2.3a.865.865,0,1,1,.612-.253A.86.86,0,0,1,11.809,88.274Zm2.6,1.736a.865.865,0,1,1,0-1.224A.859.859,0,0,1,14.41,90.01ZM23.6,85.855a.736.736,0,0,1-1.042,0l-5.25-5.249a.541.541,0,1,0-.765.765L22.2,87.026a.737.737,0,0,1-1.043,1.042l-.954-.954-.016-.016-.005,0L15.8,82.708a.541.541,0,0,0-.765.765l4.4,4.4a.737.737,0,0,1-1.049,1.035l-4.771-4.771a.541.541,0,0,0-.765.765l3.536,3.536,0,0a.737.737,0,0,1-.522,1.258.75.75,0,0,1-.14-.014A1.947,1.947,0,0,0,13.8,87.45h-.043a1.945,1.945,0,0,0-1.946-1.99l-.1,0A1.945,1.945,0,0,0,9.328,83.47l-.388-.388a7.42,7.42,0,0,1-2.055-3.9,2.733,2.733,0,0,0-.76-1.436l-.954-.954L10.6,71.362l1.353,1.353a2.759,2.759,0,0,0,1.953.8,2.837,2.837,0,0,0,.969-.171,2.545,2.545,0,0,1,.473-.121l-3.351,3.351a2.17,2.17,0,0,0,3.07,3.07l1.683-1.683.456.456h0l.019.019.018.018h0l.015.015L23.6,84.813a.737.737,0,0,1,0,1.043Zm3.409-8.073a2.538,2.538,0,0,0-.713,1.349,7.418,7.418,0,0,1-2.064,3.951l-.416.416-3.424-3.424c.074.005.149.009.224.009a2.762,2.762,0,0,0,1.055-.205.541.541,0,0,0-.41-1c-1.393.57-3.063-1-3.249-1.182L18,77.686l-.019-.019h0l-.017-.017h0l-.456-.456.517-.517a.541.541,0,1,0-.765-.765l-.9.9h0L14.3,78.877a1.088,1.088,0,1,1-1.539-1.539l3.564-3.564a3.589,3.589,0,0,1,4.018-.731,2.779,2.779,0,0,0,3.1-.552l.753-.753,4.429,4.429Zm3.047-1.713-5.806-5.806,2.521-2.521,5.806,5.806Z" transform="translate(0)"/>
    <circle id="Ellipse_6" data-name="Ellipse 6" cx="0.541" cy="0.541" r="0.541" transform="translate(30.061 73.421)"/>
    <circle id="Ellipse_7" data-name="Ellipse 7" cx="0.541" cy="0.541" r="0.541" transform="translate(3.003 73.955)"/>
  </g>
</svg>
