<svg xmlns="http://www.w3.org/2000/svg" width="28.295" height="31.222" viewBox="0 0 28.295 31.222">
  <g id="passport_1_" data-name="passport (1)" transform="translate(-23.631)">
    <path id="Path_4" data-name="Path 4" d="M58.554,7.877H78.068a3.425,3.425,0,0,1,3.415,3.415V34.708a3.425,3.425,0,0,1-3.415,3.415H58.554a3.425,3.425,0,0,1-3.415-3.415V11.292A3.425,3.425,0,0,1,58.554,7.877Z" transform="translate(-29.557 -7.389)" fill="#2b414d"/>
    <path id="Path_5" data-name="Path 5" d="M42.8,7.877H62.314a3.425,3.425,0,0,1,3.415,3.415V34.708a3.425,3.425,0,0,1-3.415,3.415H42.8a3.425,3.425,0,0,1-3.415-3.415V11.292A3.425,3.425,0,0,1,42.8,7.877Z" transform="translate(-14.778 -7.389)" fill="#ebedee"/>
    <path id="Path_6" data-name="Path 6" d="M27.046,0H46.072a3.425,3.425,0,0,1,3.415,3.415V27.807a3.425,3.425,0,0,1-3.415,3.415H27.046a3.425,3.425,0,0,1-3.415-3.415V3.415A3.425,3.425,0,0,1,27.046,0Z" fill="#324d5b"/>
    <g id="Group_1" data-name="Group 1" transform="translate(28.022 6.098)">
      <path id="Path_7" data-name="Path 7" d="M153.65,227.053h1.707A5.03,5.03,0,0,0,152.5,225.2a6.431,6.431,0,0,1,1.146,1.854m.61,2.781h2.146a5.1,5.1,0,0,0-.659-2.244H153.87a9.6,9.6,0,0,1,.39,2.244m-.415,2.781h1.878a4.92,4.92,0,0,0,.659-2.244H154.26a8.316,8.316,0,0,1-.415,2.244m-.2.561a6.778,6.778,0,0,1-1.146,1.854,5.03,5.03,0,0,0,2.854-1.854Zm-.585,0h-1.439v2a6.781,6.781,0,0,0,1.439-2m.634-2.805h-2.1v2.244h1.683a7.47,7.47,0,0,0,.415-2.244m-.415-2.781h-1.659v2.244h2.1a8.514,8.514,0,0,0-.439-2.244m-.22-.537a6.369,6.369,0,0,0-1.439-2v2Zm-3.464,0h1.439v-2a6.2,6.2,0,0,0-1.439,2m-.634,2.781h2.1V227.59h-1.683a7.618,7.618,0,0,0-.415,2.244m.415,2.781h1.659v-2.244h-2.1a8.325,8.325,0,0,0,.439,2.244m.22.561a6.369,6.369,0,0,0,1.439,2v-2Zm-.585,0h-1.707a5.03,5.03,0,0,0,2.854,1.854,7.169,7.169,0,0,1-1.146-1.854m-.585-2.805h-2.146a5.1,5.1,0,0,0,.659,2.244h1.878a7.463,7.463,0,0,1-.39-2.244m.39-2.781h-1.878a4.92,4.92,0,0,0-.659,2.244h2.146a7.6,7.6,0,0,1,.39-2.244m-1.512-.537h1.707a6.779,6.779,0,0,1,1.146-1.854,4.8,4.8,0,0,0-2.854,1.854m-1.585,3.049a5.61,5.61,0,1,1,5.61,5.61,5.611,5.611,0,0,1-5.61-5.61" transform="translate(-142.552 -216.687)" fill="#99a6ad"/>
      <path id="Path_8" data-name="Path 8" d="M111.842,98.462H94.768a.23.23,0,0,0-.244.244v.976a.23.23,0,0,0,.244.244h17.075a.23.23,0,0,0,.244-.244v-.976A.244.244,0,0,0,111.842,98.462Zm-2.439,2.927h-12.2a.23.23,0,0,0-.244.244v.976a.23.23,0,0,0,.244.244h12.2a.23.23,0,0,0,.244-.244v-.976A.244.244,0,0,0,109.4,101.389Z" transform="translate(-94.524 -98.462)" fill="#99a6ad"/>
    </g>
    <path id="Path_9" data-name="Path 9" d="M27.046,0a3.413,3.413,0,0,0-3.39,3.073,1.5,1.5,0,0,0-.024.342V27.807a3.441,3.441,0,0,0,1.464,2.805V3.415A3.425,3.425,0,0,1,28.509,0Z" transform="translate(0)" fill="#2d4552"/>
  </g>
</svg>
