<svg xmlns="http://www.w3.org/2000/svg" width="22.62" height="11.816" viewBox="0 0 22.62 11.816">
  <path id="battery" d="M24.536,1.508H22.123V0H17.692V1.508H15.279A1.294,1.294,0,0,0,14,2.814v18.5a1.294,1.294,0,0,0,1.279,1.306h9.257a1.294,1.294,0,0,0,1.279-1.306V2.814A1.294,1.294,0,0,0,24.536,1.508ZM18.431.754h2.954v.754H18.431Zm6.646,20.56a.547.547,0,0,1-.541.552H15.279a.547.547,0,0,1-.541-.552V2.814a.547.547,0,0,1,.541-.552h9.257a.547.547,0,0,1,.541.552Z" transform="translate(22.62 -14) rotate(90)" fill="#251152"/>
</svg>
