<svg width="28" height="28" viewBox="0 0 28 28" fill="none" xmlns="http://www.w3.org/2000/svg">
<path d="M14.0547 0C6.40413 0 0 6.18127 0 13.9453C0 21.6661 6.36803 28 14.0547 28C21.8274 28 28 21.5875 28 13.9453C28 6.23766 21.7629 0 14.0547 0ZM14.0547 26.3648C7.20956 26.3648 1.63516 20.7904 1.63516 13.9453C1.63516 7.16051 7.20956 1.63516 14.0547 1.63516C20.8395 1.63516 26.3648 7.16051 26.3648 13.9453C26.3648 20.8925 20.8395 26.3648 14.0547 26.3648Z" fill="#2BD010"/>
<path d="M14.0547 3.28125C8.18218 3.28125 3.28125 8.04316 3.28125 13.9453C3.28125 19.8239 8.15648 24.7188 14.0547 24.7188C19.9624 24.7188 24.7188 19.8137 24.7188 13.9453C24.7188 8.06515 19.9349 3.28125 14.0547 3.28125ZM14.0547 23.0836C9.10421 23.0836 4.91641 18.8958 4.91641 13.9453C4.91641 8.96979 9.01884 4.91641 14.0547 4.91641C19.0302 4.91641 23.0836 8.96979 23.0836 13.9453C23.0836 18.9812 19.0302 23.0836 14.0547 23.0836Z" fill="#2BD010"/>
<path d="M15.6953 13.125H14.875V9.84375H15.6953C16.1476 9.84375 16.5156 10.2117 16.5156 10.6641C16.5156 11.1171 16.8829 11.4843 17.3359 11.4843C17.789 11.4843 18.1562 11.117 18.1562 10.664C18.1562 9.30705 17.0523 8.20312 15.6953 8.20312H14.875V7.38281C14.875 6.92978 14.5077 6.5625 14.0547 6.5625C13.6017 6.5625 13.2344 6.92978 13.2344 7.38281V8.20312H12.3047C10.9477 8.20312 9.84375 9.3071 9.84375 10.6641V12.3047C9.84375 13.6616 10.9477 14.7656 12.3047 14.7656H13.2344V18.1562H12.3047C11.8524 18.1562 11.4844 17.7883 11.4844 17.3359C11.4844 16.8829 11.1171 16.5156 10.6641 16.5156C10.211 16.5156 9.84375 16.8829 9.84375 17.3359C9.84375 18.6929 10.9477 19.7969 12.3047 19.7969H13.2344V20.6172C13.2344 21.0702 13.6017 21.4375 14.0547 21.4375C14.5077 21.4375 14.875 21.0702 14.875 20.6172V19.7969H15.6953C17.0523 19.7969 18.1562 18.6929 18.1562 17.3359V15.5859C18.1562 14.229 17.0523 13.125 15.6953 13.125ZM13.2344 13.125H12.3047C11.8524 13.125 11.4844 12.757 11.4844 12.3047V10.6641C11.4844 10.2117 11.8524 9.84375 12.3047 9.84375H13.2344V13.125ZM16.5156 17.3359C16.5156 17.7883 16.1476 18.1562 15.6953 18.1562H14.875V14.7656H15.6953C16.1476 14.7656 16.5156 15.1336 16.5156 15.5859V17.3359Z" fill="#2BD010"/>
</svg>
