<?xml version="1.0" encoding="utf-8"?>
<!-- Generator: Adobe Illustrator 25.0.0, SVG Export Plug-In . SVG Version: 6.00 Build 0)  -->
<svg version="1.1" id="Layer_1" xmlns="http://www.w3.org/2000/svg" xmlns:xlink="http://www.w3.org/1999/xlink" x="0px" y="0px"
	 viewBox="0 0 68 68" style="enable-background:new 0 0 68 68;" xml:space="preserve">
<style type="text/css">
	.st0{fill:#10D995;}
	.st1{fill:#FFFFFF;}
</style>
<circle id="Ellipse_3" class="st0" cx="34" cy="34" r="34"/>
<path id="Subtraction_1" class="st1" d="M24,50.8v-6.5c0,0-1.9-1.8-2.5-1.8c-0.6,0-4.4-7.7-4.4-7.7l0.5-8l4-6.6l11.7-3.5l9.9,1.6
	l8.2,7.3v9.2l-5.5,9.1l0,0c-0.9,0.3-8.7,2.5-9.7,2.5c0,0-0.1,0-0.1,0c-0.5-0.1-1-0.2-1.5-0.1c-1.6,0-3.9,0.1-3.9,0.1L24,50.8
	L24,50.8z M30.4,32.3c-0.8,0-1.5,0.7-1.5,1.5s0.7,1.5,1.5,1.5h10c0.8,0,1.5-0.7,1.5-1.5s-0.7-1.5-1.5-1.5H30.4z M27.4,26.3
	c-0.8,0-1.5,0.7-1.5,1.5c0,0.8,0.7,1.5,1.5,1.5h13c0.8,0,1.5-0.7,1.5-1.5c0-0.8-0.7-1.5-1.5-1.5H27.4z"/>
<path id="Path_4" class="st1" d="M34,16c-10.3,0-18.6,7.3-18.6,16.3c0.1,5.1,2.7,9.9,7,12.7v8.3l8.2-5c1.2,0.2,2.3,0.3,3.5,0.3
	c10.3,0,18.6-7.3,18.6-16.3S44.3,16,34,16z M34,46.3c-1.3,0-2.6-0.1-3.9-0.4l-5.5,3.3l0.1-5.4c-4.2-2.5-7-6.7-7-11.5
	c0-7.7,7.3-14,16.3-14s16.3,6.3,16.3,14S43.1,46.3,34,46.3z"/>
</svg>
