<?xml version="1.0" encoding="utf-8"?>
<!-- Generator: Adobe Illustrator 25.0.0, SVG Export Plug-In . SVG Version: 6.00 Build 0)  -->
<svg version="1.1" id="Layer_1" xmlns="http://www.w3.org/2000/svg" xmlns:xlink="http://www.w3.org/1999/xlink" x="0px" y="0px"
	 viewBox="0 0 68 68" style="enable-background:new 0 0 68 68;" xml:space="preserve">
<style type="text/css">
	.st0{fill:url(#Ellipse_4_1_);}
	.st1{fill:#FFFFFF;}
</style>
<linearGradient id="Ellipse_4_1_" gradientUnits="userSpaceOnUse" x1="-258.6324" y1="449.1987" x2="-258.6324" y2="448.1987" gradientTransform="matrix(68 0 0 -68 17621 30545.5078)">
	<stop  offset="0" style="stop-color:#CDDCEC"/>
	<stop  offset="1" style="stop-color:#9AB8DB"/>
</linearGradient>
<circle id="Ellipse_4" class="st0" cx="34" cy="34" r="34"/>
<path id="settings" class="st1" d="M50.1,30h-3.4c-0.7,0-1.3-0.6-1.3-1.3c0-0.3,0.1-0.7,0.4-0.9l2.4-2.4c0.7-0.7,0.7-1.9,0-2.6l-3-3
	c-0.7-0.7-1.9-0.7-2.6,0l-2.4,2.4c-0.2,0.2-0.6,0.4-0.9,0.4c-0.3,0-0.7-0.1-0.9-0.4c-0.3-0.2-0.4-0.6-0.4-0.9v-3.4
	c0-1-0.8-1.9-1.9-1.9h-4.3c-1,0-1.9,0.8-1.9,1.9v3.4c0,0.7-0.6,1.3-1.3,1.3c0,0,0,0,0,0c-0.3,0-0.7-0.1-0.9-0.4l-2.4-2.4
	c-0.7-0.7-1.9-0.7-2.6,0l-3,3c-0.7,0.7-0.7,1.9,0,2.6l2.4,2.4c0.5,0.5,0.5,1.3,0,1.8c-0.2,0.2-0.6,0.4-0.9,0.4h-3.4
	c-1,0-1.9,0.8-1.9,1.9v4.3c0,1,0.8,1.9,1.9,1.9h3.4c0.7,0,1.3,0.6,1.3,1.3c0,0.3-0.1,0.7-0.4,0.9l-2.4,2.4c-0.7,0.7-0.7,1.9,0,2.6
	l3,3c0.7,0.7,1.9,0.7,2.6,0l2.4-2.4c0.2-0.2,0.6-0.4,0.9-0.4c0.7,0,1.3,0.6,1.3,1.3c0,0,0,0,0,0v3.4c0,1,0.8,1.9,1.9,1.9h4.3
	c1,0,1.9-0.8,1.9-1.9v-3.4c0-0.7,0.6-1.3,1.3-1.3c0,0,0,0,0,0c0.3,0,0.7,0.1,0.9,0.4l2.4,2.4c0.7,0.7,1.9,0.7,2.6,0l3-3
	c0.7-0.7,0.7-1.9,0-2.6l-2.4-2.4c-0.5-0.5-0.5-1.3,0-1.8c0.2-0.2,0.6-0.4,0.9-0.4h3.4c1,0,1.9-0.8,1.9-1.9v-4.3
	C52,30.8,51.2,30,50.1,30z M38.7,34c0,2.6-2.1,4.7-4.7,4.7s-4.7-2.1-4.7-4.7s2.1-4.7,4.7-4.7l0,0C36.6,29.3,38.7,31.4,38.7,34z"/>
</svg>
