<svg id="croissant" enable-background="new 0 0 300 300" width="100%" height="100%" viewBox="0 0 300 300" xmlns="http://www.w3.org/2000/svg"><circle cx="115.795" cy="163.34" fill="#edebdc" r="90"/><path d="m255.516 114.038s7.632-22.325-26.803-60.263c-3.282-3.616-8.6-4.624-12.984-2.473-5.107 2.505-7.429 8.464-5.417 13.784 5.349 14.148 13.039 41.215 1.109 56.87z" fill="#bf7e68"/><path d="m211.42 125.957c-1.375 0-2.68-.711-3.414-1.914-.859-1.408-.766-3.199.234-4.51 11.086-14.549 2.523-41.934-1.672-53.033-2.758-7.291.426-15.367 7.398-18.789 5.965-2.926 13.246-1.539 17.707 3.377 35.613 39.234 27.973 63.242 27.629 64.244-.469 1.375-1.648 2.387-3.078 2.645l-44.098 7.918c-.237.042-.471.062-.706.062zm9.145-71.774c-1.047 0-2.098.23-3.074.711-3.25 1.594-4.727 5.367-3.438 8.777 4.977 13.172 11.418 35.891 4.887 52.871l33.145-5.951c.613-6.229-.242-25.383-26.332-54.129-1.352-1.486-3.258-2.279-5.188-2.279zm34.953 59.856h.039zm0 0h.039z" fill="#4c241d"/><path d="m85.159 197.591s-22.325-7.632-31.242-58.086c-.85-4.808 1.609-9.631 5.993-11.781 5.107-2.505 11.24-.692 14.216 4.155 7.913 12.891 24.607 35.542 44.289 35.693z" fill="#bf7e68"/><path d="m85.159 201.591c-.434 0-.871-.07-1.293-.215-1.004-.344-24.664-8.996-33.887-61.176-1.152-6.537 2.207-13.145 8.172-16.068 6.969-3.418 15.305-.988 19.387 5.652 6.203 10.113 22.613 33.646 40.91 33.787 1.648.014 3.121 1.037 3.707 2.578.586 1.543.168 3.285-1.059 4.391l-33.258 30.02c-.746.674-1.703 1.031-2.679 1.031zm-20.414-70.992c-1.035 0-2.082.232-3.07.717-2.785 1.365-4.355 4.447-3.82 7.494 6.758 38.229 21.383 50.631 26.68 53.955l25-22.562c-17.435-5.229-31.454-24.233-38.818-36.233-1.324-2.16-3.613-3.371-5.972-3.371z" fill="#4c241d"/><path d="m235.598 199.203s25.418-29.577 34.395-78.606c1.398-7.638-4.3-14.737-12.064-14.796l-44.31-.34c-5.788-.044-10.866 3.905-12.148 9.549-3.087 13.587-10.588 37.582-26.121 45.201z" fill="#bf7e68"/><path d="m235.596 203.203c-.746 0-1.5-.209-2.168-.643l-60.25-38.992c-1.211-.783-1.906-2.156-1.82-3.594.086-1.439.938-2.721 2.23-3.355 14.555-7.141 21.621-32.098 23.98-42.496 1.672-7.354 8.371-12.662 15.957-12.662h.125l44.309.34c4.832.037 9.367 2.193 12.445 5.916 3.129 3.783 4.414 8.74 3.523 13.6-9.066 49.525-34.227 79.252-35.293 80.494-.784.911-1.905 1.392-3.038 1.392zm-52.871-42.985 51.984 33.643c6.211-8.293 24.207-34.965 31.352-73.986.461-2.529-.199-5.104-1.82-7.061-1.59-1.924-3.844-2.994-6.344-3.014l-44.309-.34c-.02 0-.043 0-.066 0-3.879 0-7.301 2.697-8.148 6.434-2.872 12.635-9.438 33.797-22.649 44.324z" fill="#4c241d"/><path d="m164.693 233.978s-38.948 1.992-83.211-20.925c-6.895-3.57-9.02-12.422-4.314-18.597l26.858-35.245c3.508-4.604 9.74-6.201 14.988-3.76 12.633 5.878 36.198 14.636 51.732 7.017z" fill="#bf7e68"/><path d="m161.967 238.031c-10.023 0-44.047-1.607-82.324-21.426-4.387-2.271-7.52-6.32-8.598-11.109-1.059-4.713.012-9.621 2.938-13.465l26.863-35.244c4.621-6.072 12.973-8.16 19.855-4.963 9.668 4.502 33.734 14.193 48.281 7.053 1.293-.639 2.828-.527 4.02.289 1.188.814 1.848 2.203 1.727 3.641l-6.051 71.51c-.168 1.992-1.781 3.555-3.781 3.656-.234.011-1.242.058-2.93.058zm2.727-4.053h.039zm-50.793-75.654c-2.551 0-5.066 1.176-6.695 3.311l-26.859 35.244c-1.512 1.988-2.043 4.426-1.496 6.863.559 2.477 2.188 4.576 4.473 5.758 35.32 18.289 67.355 20.355 77.691 20.508l5.223-61.701c-16.41 3.988-37.168-3.764-48.91-9.229-1.095-.51-2.263-.754-3.427-.754z" fill="#4c241d"/><path d="m145.485 145.156 30.719-15.066c6.009-2.947 13.228-1.743 17.954 2.996l48.451 48.574c11.391 11.42 8.181 30.654-6.3 37.756l-56.988 27.95c-14.482 7.103-31.655-2.134-33.711-18.132l-8.747-68.047c-.854-6.638 2.613-13.083 8.622-16.031z" fill="#bf7e68"/><path d="m168.944 253.81c-4.465 0-8.918-1.111-13.031-3.324-7.922-4.26-13.125-11.82-14.273-20.742l-8.746-68.047c-1.07-8.342 3.285-16.432 10.832-20.133l30.719-15.066c7.551-3.701 16.609-2.188 22.547 3.764l48.449 48.574c6.352 6.369 9.148 15.109 7.664 23.982-1.48 8.871-6.961 16.23-15.035 20.189l-56.988 27.951c-3.88 1.903-8.013 2.852-12.138 2.852zm14.144-121.318c-1.738 0-3.488.389-5.121 1.189l-30.719 15.066c-4.473 2.193-7.055 6.988-6.418 11.93l8.746 68.047c.812 6.33 4.504 11.693 10.125 14.717 5.613 3.021 12.121 3.148 17.855.334l56.988-27.951c5.73-2.809 9.617-8.029 10.668-14.322 1.051-6.295-.93-12.498-5.438-17.018l-48.449-48.574c-2.233-2.24-5.213-3.418-8.237-3.418zm-37.601 12.664h.039z" fill="#4c241d"/><path d="m193.66 222.864c-9.773 8.608-24.564 8.095-33.717-1.169l-1.975-1.999" fill="#bf7e68"/><path d="m177.428 232.99c-7.391 0-14.762-2.85-20.328-8.484l-1.977-1.996c-1.555-1.57-1.539-4.104.031-5.656 1.566-1.555 4.105-1.539 5.656.031l1.977 1.998c7.652 7.75 20.051 8.188 28.227.98 1.66-1.455 4.188-1.299 5.645.357 1.461 1.658 1.301 4.186-.355 5.646-5.407 4.765-12.149 7.124-18.876 7.124z" fill="#4c241d"/><g fill="#ffce56"><circle cx="225.795" cy="133.34" r="8"/><circle cx="113.795" cy="181.34" r="8"/><circle cx="177.795" cy="205.34" r="8"/><circle cx="249.795" cy="125.34" r="4"/><circle cx="229.795" cy="89.34" r="4"/><circle cx="117.795" cy="209.34" r="4"/></g></svg>