<svg id="Capa_1" enable-background="new 0 0 512 512" height="512" viewBox="0 0 512 512" width="512" xmlns="http://www.w3.org/2000/svg"><g><g><path d="m512 256c0 141.387-114.613 256-256 256s-256-114.613-256-256 114.613-256 256-256 256 114.613 256 256zm0 0" fill="#de4a59"/><path d="m512 256c0 26.051-3.891 51.191-11.129 74.871-5.031 16.469-11.672 32.231-19.75 47.109-8.25 15.2-152.931 27.97-230.661 27.97s-211.331-12.77-219.569-27.97c-3.289-6.031-6.332-12.21-9.121-18.531-14-31.629-21.77-66.629-21.77-103.449 0-46.219 12.25-89.57 33.68-127 44.121 77.07 127.16 129 222.32 129s178.211-51.93 222.32-129c21.43 37.43 33.68 80.781 33.68 127zm0 0" fill="#da3646"/><path d="m481.262 377.699c-7.16 13.223-15.434 25.742-24.723 37.43-8.437 10.633-17.719 20.57-27.719 29.723-45.539 41.699-106.211 67.148-172.82 67.148s-127.281-25.449-172.82-67.148c-10-9.153-19.282-19.09-27.719-29.723-9.289-11.688-17.563-24.207-24.723-37.43zm0 0" fill="#b21a35"/></g><g><path d="m401.538 166.113h-22.91v22.91h22.91c6.32 0 11.455 5.135 11.455 11.455v48.225c0 5.839-4.385 10.739-10.392 11.399l-142.316 18.368c-7.499.832-13.912 4.357-19.118 9.121-6.895 6.308-11.455 15.038-11.455 25.031v25.315h11.455 11.455v-25.315c0-5.839 4.385-10.739 10.392-11.399l142.316-18.368c17.429-1.935 30.573-16.612 30.573-34.153v-48.225c0-18.948-15.415-34.364-34.365-34.364z" fill="#8a8faa"/><path d="m252.622 312.624c0-5.839 4.385-10.739 10.392-11.399l142.316-18.368c17.429-1.935 30.573-16.612 30.573-34.153v-48.225c0-18.95-15.415-34.365-34.365-34.365h-22.91v22.91h22.91c6.32 0 11.455 5.135 11.455 11.455v48.225c0 5.839-4.385 10.739-10.392 11.399l-142.316 18.368c-7.499.832-13.912 4.357-19.118 9.121v50.347h11.455z" fill="#686e91"/><path d="m344.262 120.293-20.046 6.873h-83.049-131.018l-17.898-6.873v114.551h148.916 148.916v-114.551z" fill="#f1f6ff"/><path d="m390.083 120.293h-45.821l-20.046 6.873h-83.049v107.678h148.916z" fill="#dfe5f2"/><path d="m289.381 453.537-15.147-127.052h-33.068-33.068l-15.001 126.18c-6.049 30.316 17.13 58.629 48.069 58.629 31.597-.001 53.956-29.283 48.215-57.757z" fill="#e8a354"/><path d="m289.381 453.537-15.147-127.052h-33.068v184.809c31.597-.001 53.956-29.283 48.215-57.757z" fill="#e1763b"/><path d="m241.167 120.293h-148.916c22.133 32.587 47.666 55.46 86.137 64.547 9.99 2.372 16.959 11.422 16.959 22.026v50.888c0 12.63 10.281 22.91 22.91 22.91s22.91-10.281 22.91-22.91v-50.888c0-10.605 6.98-19.666 16.959-22.026 38.528-9.092 64.013-31.941 86.137-64.547z" fill="#c3f1ff"/><path d="m241.782 120.293h-116.597c15.753 32.586 44.094 55.46 71.476 64.547 7.11 2.372 12.071 11.422 12.071 22.026v50.888c0 12.63 7.317 22.91 16.306 22.91s16.306-10.281 16.306-22.91v-50.888c0-1.827.157-3.604.438-5.313z" fill="#71bffd"/><path d="m258.125 184.84c38.528-9.092 64.013-31.941 86.137-64.547h-103.095v86.573c0-10.605 6.98-19.666 16.958-22.026z" fill="#427de1"/></g><g fill="#fff"><path d="m71.955 295.092h-1.524c-6.754 0-12.226-5.477-12.226-12.227v-1.523h-8.715v1.523c0 6.75-5.477 12.227-12.227 12.227h-1.527v8.715h1.527c6.75 0 12.227 5.472 12.227 12.226v1.528h8.715v-1.528c0-6.754 5.472-12.226 12.226-12.226h1.524zm0 0"/><path d="m135.218 373.34h-1.524c-6.754 0-12.226-5.477-12.226-12.227v-1.523h-8.715v1.523c0 6.75-5.477 12.227-12.227 12.227h-1.527v8.715h1.527c6.75 0 12.227 5.472 12.227 12.226v1.528h8.715v-1.528c0-6.754 5.472-12.226 12.226-12.226h1.524zm0 0"/></g></g></svg>